<svg width="48" height="48" viewBox="0 0 48 48" fill="none" xmlns="http://www.w3.org/2000/svg">
  <defs>
    <linearGradient id="favicon-gradient" x1="4" y1="4" x2="44" y2="44" gradientUnits="userSpaceOnUse">
      <stop offset="0" stop-color="#38BDF8" />
      <stop offset="0.45" stop-color="#6366F1" />
      <stop offset="1" stop-color="#1D4ED8" />
    </linearGradient>
  </defs>
  <rect x="4" y="4" width="40" height="40" rx="14" fill="url(#favicon-gradient)" />
  <path d="M16 17c0-2.8 2.1-5 5-5 2.2 0 4.1 1.4 4.7 3.4l3.2 11c0.4 1.3 1.6 2.2 3 2.2 1.8 0 3.2-1.4 3.2-3.2V17h4v9.9c0 4.9-3.9 8.9-8.9 8.9-3.8 0-7-2.4-8.1-6L19 18c-0.2-0.8-0.9-1.3-1.7-1.3-0.9 0-1.7 0.7-1.7 1.7V31H16V17z" fill="#F8FAFC" />
  <circle cx="18.8" cy="34" r="3.2" fill="#E0F2FE" />
</svg>
