<svg width="640" height="480" viewBox="0 0 640 480" fill="none" xmlns="http://www.w3.org/2000/svg" role="img">
  <defs>
    <linearGradient id="gradient-bg" x1="40" y1="40" x2="600" y2="440" gradientUnits="userSpaceOnUse">
      <stop offset="0" stop-color="#60A5FA" stop-opacity="0.8" />
      <stop offset="1" stop-color="#22D3EE" stop-opacity="0.3" />
    </linearGradient>
    <linearGradient id="node-gradient" x1="0" y1="0" x2="1" y2="1">
      <stop offset="0" stop-color="#F8FAFC" stop-opacity="0.9" />
      <stop offset="1" stop-color="#E2E8F0" stop-opacity="0.6" />
    </linearGradient>
    <filter id="blur" x="-20" y="-20" width="680" height="520" filterUnits="userSpaceOnUse" color-interpolation-filters="sRGB">
      <feGaussianBlur stdDeviation="40" result="blurred" />
    </filter>
  </defs>
  <rect x="32" y="32" width="576" height="416" rx="48" fill="url(#gradient-bg)" stroke="rgba(148,163,184,0.35)" />
  <g filter="url(#blur)">
    <circle cx="128" cy="96" r="64" fill="#38BDF8" fill-opacity="0.35" />
    <circle cx="520" cy="360" r="80" fill="#4F46E5" fill-opacity="0.3" />
  </g>
  <g stroke="rgba(15,23,42,0.18)" stroke-width="2.4" stroke-linecap="round">
    <path d="M160 180L320 120L460 176" />
    <path d="M200 320L320 272L420 356" />
    <path d="M160 180L200 320" />
    <path d="M320 120L320 272" />
    <path d="M460 176L420 356" />
    <path d="M460 176L520 120L560 216" />
    <path d="M200 320L120 380L80 280" />
  </g>
  <g fill="url(#node-gradient)" stroke="rgba(148,163,184,0.45)" stroke-width="1.5">
    <rect x="112" y="148" width="96" height="72" rx="18" />
    <rect x="272" y="88" width="96" height="72" rx="18" />
    <rect x="424" y="148" width="104" height="72" rx="18" />
    <rect x="168" y="296" width="96" height="72" rx="18" />
    <rect x="296" y="248" width="96" height="72" rx="18" />
    <rect x="392" y="332" width="104" height="72" rx="18" />
  </g>
  <g font-family="'Inter', 'Segoe UI', sans-serif" font-size="20" fill="#0F172A" fill-opacity="0.82" text-anchor="middle">
    <text x="160" y="188">CRM</text>
    <text x="320" y="128">HR</text>
    <text x="472" y="188">Ledger</text>
    <text x="216" y="336">BI</text>
    <text x="344" y="288">nERP</text>
    <text x="440" y="372">Inventory</text>
  </g>
  <g stroke="#38BDF8" stroke-width="2" stroke-dasharray="4 6" stroke-linecap="round" opacity="0.8">
    <path d="M64 420C160 360 320 400 480 332C540 306 584 244 584 184" />
  </g>
</svg>
