<svg width="44" height="44" viewBox="0 0 44 44" fill="none" xmlns="http://www.w3.org/2000/svg">
  <defs>
    <linearGradient id="nerpGradient" x1="4" y1="4" x2="40" y2="40" gradientUnits="userSpaceOnUse">
      <stop offset="0" stop-color="#2563EB" />
      <stop offset="1" stop-color="#22D3EE" />
    </linearGradient>
    <linearGradient id="nerpStroke" x1="12" y1="10" x2="32" y2="34" gradientUnits="userSpaceOnUse">
      <stop offset="0" stop-color="#F8FAFC" />
      <stop offset="1" stop-color="#E0F2FE" />
    </linearGradient>
    <radialGradient id="nerpGlow" cx="0" cy="0" r="1" gradientUnits="userSpaceOnUse" gradientTransform="translate(10 10) rotate(45) scale(26)">
      <stop offset="0" stop-color="#FFFFFF" stop-opacity="0.6" />
      <stop offset="1" stop-color="#FFFFFF" stop-opacity="0" />
    </radialGradient>
  </defs>
  <rect x="1.5" y="1.5" width="41" height="41" rx="15" fill="url(#nerpGradient)" />
  <rect x="1.5" y="1.5" width="41" height="41" rx="15" stroke="rgba(255,255,255,0.28)" stroke-width="1.5" />
  <rect x="1.5" y="1.5" width="41" height="41" rx="15" fill="url(#nerpGlow)" />
  <path d="M14 31.5V14.6C14 12.07 16.07 10 18.6 10C21.13 10 23.2 12.07 23.2 14.6V21.4C23.2 22.62 24.18 23.6 25.4 23.6C26.62 23.6 27.6 22.62 27.6 21.4V14.6C27.6 12.07 29.67 10 32.2 10C34.73 10 36.8 12.07 36.8 14.6V31.5H32.8V14.8C32.8 13.58 31.82 12.6 30.6 12.6C29.38 12.6 28.4 13.58 28.4 14.8V21.6C28.4 24.13 26.33 26.2 23.8 26.2C21.27 26.2 19.2 24.13 19.2 21.6V14.8C19.2 13.58 18.22 12.6 17 12.6C15.78 12.6 14.8 13.58 14.8 14.8V31.5H14Z" fill="url(#nerpStroke)" />
  <circle cx="12.2" cy="30.2" r="4.2" fill="rgba(248, 250, 252, 0.28)" stroke="rgba(248, 250, 252, 0.7)" stroke-width="1.4" />
  <circle cx="12.2" cy="30.2" r="1.4" fill="#F8FAFC" />
</svg>
