<svg width="64" height="64" viewBox="0 0 64 64" fill="none" xmlns="http://www.w3.org/2000/svg">
  <defs>
    <linearGradient id="favGradient" x1="8" y1="6" x2="56" y2="58" gradientUnits="userSpaceOnUse">
      <stop offset="0" stop-color="#2563EB" />
      <stop offset="1" stop-color="#0EA5E9" />
    </linearGradient>
    <linearGradient id="favLetter" x1="20" y1="16" x2="46" y2="50" gradientUnits="userSpaceOnUse">
      <stop offset="0" stop-color="#F8FAFC" />
      <stop offset="1" stop-color="#E2E8F0" />
    </linearGradient>
  </defs>
  <rect x="4" y="4" width="56" height="56" rx="20" fill="url(#favGradient)" />
  <rect x="4" y="4" width="56" height="56" rx="20" stroke="rgba(255,255,255,0.3)" stroke-width="2" />
  <path d="M20 48V22.4C20 19.4 22.4 17 25.4 17C28.4 17 30.8 19.4 30.8 22.4V32.2C30.8 33.88 32.12 35.2 33.8 35.2C35.48 35.2 36.8 33.88 36.8 32.2V22.4C36.8 19.4 39.2 17 42.2 17C45.2 17 47.6 19.4 47.6 22.4V48H42.8V22.6C42.8 21.16 41.64 20 40.2 20C38.76 20 37.6 21.16 37.6 22.6V32.4C37.6 35.4 35.2 37.8 32.2 37.8C29.2 37.8 26.8 35.4 26.8 32.4V22.6C26.8 21.16 25.64 20 24.2 20C22.76 20 21.6 21.16 21.6 22.6V48H20Z" fill="url(#favLetter)" />
  <circle cx="18" cy="44" r="5" fill="rgba(248, 250, 252, 0.3)" stroke="rgba(248, 250, 252, 0.75)" stroke-width="1.6" />
  <circle cx="18" cy="44" r="1.6" fill="#F8FAFC" />
</svg>
