<svg width="640" height="480" viewBox="0 0 640 480" fill="none" xmlns="http://www.w3.org/2000/svg" role="img" aria-labelledby="title desc">
  <title id="title">nERP dashboard illustration</title>
  <desc id="desc">Abstract dashboard cards connected with gradients representing automation.</desc>
  <defs>
    <linearGradient id="bg" x1="0" y1="0" x2="640" y2="480" gradientUnits="userSpaceOnUse">
      <stop offset="0%" stop-color="#2563EB" stop-opacity="0.75" />
      <stop offset="50%" stop-color="#3B82F6" stop-opacity="0.35" />
      <stop offset="100%" stop-color="#38BDF8" stop-opacity="0.45" />
    </linearGradient>
    <linearGradient id="card" x1="0" y1="0" x2="1" y2="1">
      <stop offset="0%" stop-color="white" stop-opacity="0.96" />
      <stop offset="100%" stop-color="#E0F2FE" stop-opacity="0.65" />
    </linearGradient>
    <radialGradient id="glow" cx="0" cy="0" r="1" gradientUnits="userSpaceOnUse" gradientTransform="translate(320 260) rotate(90) scale(220 320)">
      <stop offset="0" stop-color="#93C5FD" stop-opacity="0.5" />
      <stop offset="1" stop-color="#2563EB" stop-opacity="0" />
    </radialGradient>
    <filter id="blur" x="-40" y="-40" width="720" height="560" filterUnits="userSpaceOnUse" color-interpolation-filters="sRGB">
      <feGaussianBlur stdDeviation="40" />
    </filter>
  </defs>
  <rect width="640" height="480" rx="40" fill="url(#bg)" />
  <g filter="url(#blur)">
    <ellipse cx="180" cy="130" rx="140" ry="90" fill="#60A5FA" fill-opacity="0.45" />
    <ellipse cx="500" cy="180" rx="150" ry="110" fill="#38BDF8" fill-opacity="0.4" />
  </g>
  <rect x="60" y="80" width="220" height="140" rx="24" fill="url(#card)" stroke="#BFDBFE" stroke-width="2" />
  <rect x="360" y="110" width="220" height="120" rx="24" fill="url(#card)" stroke="#BFDBFE" stroke-width="2" />
  <rect x="220" y="260" width="280" height="140" rx="28" fill="url(#card)" stroke="#BFDBFE" stroke-width="2" />
  <rect x="120" y="250" width="80" height="80" rx="20" fill="#1D4ED8" fill-opacity="0.9" />
  <rect x="470" y="260" width="60" height="60" rx="18" fill="#1E3A8A" fill-opacity="0.9" />
  <circle cx="160" cy="150" r="18" fill="#2563EB" />
  <rect x="190" y="136" width="70" height="12" rx="6" fill="#1E293B" fill-opacity="0.6" />
  <rect x="190" y="156" width="54" height="12" rx="6" fill="#1E293B" fill-opacity="0.4" />
  <rect x="390" y="146" width="80" height="12" rx="6" fill="#1E293B" fill-opacity="0.6" />
  <rect x="390" y="166" width="60" height="12" rx="6" fill="#1E293B" fill-opacity="0.4" />
  <rect x="260" y="300" width="120" height="14" rx="7" fill="#1E293B" fill-opacity="0.55" />
  <rect x="260" y="324" width="160" height="14" rx="7" fill="#1E293B" fill-opacity="0.45" />
  <rect x="260" y="348" width="110" height="14" rx="7" fill="#1E293B" fill-opacity="0.35" />
  <circle cx="310" cy="196" r="12" stroke="#1E3A8A" stroke-width="4" fill="none" />
  <circle cx="430" cy="214" r="10" stroke="#2563EB" stroke-width="4" fill="none" />
  <path d="M160 150 C210 190 260 210 310 196" stroke="#38BDF8" stroke-width="4" stroke-linecap="round" opacity="0.5" />
  <path d="M430 214 C430 260 360 300 310 310" stroke="#60A5FA" stroke-width="4" stroke-linecap="round" opacity="0.45" />
  <circle cx="520" cy="320" r="12" fill="#38BDF8" />
  <circle cx="490" cy="290" r="10" fill="#2563EB" opacity="0.6" />
  <circle cx="260" cy="300" r="8" fill="#1D4ED8" opacity="0.8" />
  <circle cx="260" cy="324" r="8" fill="#1D4ED8" opacity="0.65" />
  <circle cx="260" cy="348" r="8" fill="#1D4ED8" opacity="0.5" />
  <rect x="100" y="276" width="24" height="24" rx="8" fill="#93C5FD" />
  <path d="M112 288 L118 294 L130 282" stroke="#1E3A8A" stroke-width="4" stroke-linecap="round" stroke-linejoin="round" />
  <circle cx="500" cy="180" r="16" fill="#2563EB" />
  <circle cx="500" cy="180" r="30" stroke="#60A5FA" stroke-width="2" opacity="0.6" />
  <rect x="60" y="80" width="520" height="320" rx="40" fill="url(#glow)" />
</svg>
